<svg xmlns="http://www.w3.org/2000/svg" width="323.895" height="149.716" viewBox="0 0 323.895 149.716">
  <path id="cloud_01" data-name="cloud 01" d="M1617.154,2503.714c-.116,0-.244-.006-.367-.011h-.005c-.118-.005-.229-.01-.327-.01H1428.711c-.1,0-.207,0-.318,0h-.038c-.125,0-.254,0-.379,0a3.1,3.1,0,0,1-.666-.052h-.365a1.981,1.981,0,0,0-.333-.039,2.15,2.15,0,0,1-.379-.047,4,4,0,0,0-.448-.074,3.563,3.563,0,0,1-.543-.1c-.252-.074-.507-.142-.753-.209l-.006,0a12.3,12.3,0,0,1-1.976-.652,15.459,15.459,0,0,1-6.313-5.062,21.192,21.192,0,0,1-1.595-2.822,4.3,4.3,0,0,1-.247-.672v-.005h0c-.042-.137-.085-.279-.138-.422a14.608,14.608,0,0,1-.8-5.128v-.1a11.778,11.778,0,0,1,.193-2.68,1.521,1.521,0,0,0,.038-.307,1.288,1.288,0,0,1,.049-.338c.1-.305.174-.616.248-.916a10.668,10.668,0,0,1,.355-1.218,15.257,15.257,0,0,1,1.724-3.339c.176-.25.367-.494.551-.729.11-.141.235-.3.353-.457a1.077,1.077,0,0,1,.149-.149,1.094,1.094,0,0,0,.152-.152,4.777,4.777,0,0,1,.905-.926l.237-.258c.214-.162.429-.332.637-.5a13.5,13.5,0,0,1,4.491-2.52,9.861,9.861,0,0,1,1.326-.364l.021,0c.258-.058.526-.119.786-.191a3.593,3.593,0,0,1,.657-.1,3.952,3.952,0,0,0,.572-.076h.345a1.232,1.232,0,0,1,.271-.024c.069,0,.144,0,.2,0h.012c.062,0,.131,0,.2,0a1.506,1.506,0,0,0,.333-.03,2.317,2.317,0,0,1,.491-.041c.133,0,.275.005.388.01l.056,0c.118,0,.229.008.335.008h20.982a11.085,11.085,0,0,0,2.782-.236c.181-.05.375-.1.531-.135a7.714,7.714,0,0,0,1.257-.383,12.009,12.009,0,0,0,5.106-3.769,1.884,1.884,0,0,1,.143-.164,1.879,1.879,0,0,0,.158-.183,14.057,14.057,0,0,0,1.12-1.852,11.953,11.953,0,0,0,.641-1.662c.045-.135.089-.27.135-.405a5.279,5.279,0,0,0,.185-.851c.033-.205.067-.414.116-.614a1.1,1.1,0,0,0,.023-.3,1.232,1.232,0,0,1,.021-.3,4.573,4.573,0,0,0,.043-1.465,1.711,1.711,0,0,1-.025-.39,1.434,1.434,0,0,0-.018-.321v-.3a1.918,1.918,0,0,1-.037-.271,2.032,2.032,0,0,0-.049-.332c-.062-.239-.116-.483-.167-.72l0-.008a8.071,8.071,0,0,0-.434-1.514,12.326,12.326,0,0,0-5.99-6.549,12.592,12.592,0,0,0-1.607-.628l-.006,0-.063-.021-.241-.082a13.38,13.38,0,0,0-4.066-.44c-.326,0-.665,0-.964.005h-.043c-.3,0-.613,0-.917,0h-57.13a20.938,20.938,0,0,1-6.341-.6c-.155-.053-.306-.089-.452-.124a3.323,3.323,0,0,1-.582-.177l-.346-.15a17.57,17.57,0,0,1-2.326-1.143,15.558,15.558,0,0,1-5.882-6.721,5.64,5.64,0,0,1-.309-.824l0-.006c-.05-.158-.1-.321-.163-.485-.145-.391-.261-.832-.373-1.259q-.05-.19-.1-.379a3.986,3.986,0,0,1-.092-.509,4.057,4.057,0,0,0-.08-.46,3.924,3.924,0,0,1-.076-.781,4.852,4.852,0,0,0-.032-.491,5.63,5.63,0,0,1-.025-.859c0-.114,0-.221,0-.326v-.539a2.756,2.756,0,0,0,.031-.369,3.2,3.2,0,0,1,.056-.558c.086-.362.148-.727.207-1.08a9.519,9.519,0,0,1,.354-1.57,17.375,17.375,0,0,1,2.542-4.827,10.4,10.4,0,0,1,1.056-1.164l.108-.107a15.682,15.682,0,0,1,6.1-3.75,10.05,10.05,0,0,1,1.533-.354h.006c.335-.06.681-.121,1.025-.2a2.941,2.941,0,0,1,.515-.059c.125-.007.24-.013.347-.03a.536.536,0,0,1,.073,0c.046,0,.1,0,.147.008s.108.009.157.009a.314.314,0,0,0,.162-.032H1568.99c.075,0,.155,0,.244-.005h.014c.083,0,.17-.005.253-.005a1.759,1.759,0,0,1,.373.031h.56a3.206,3.206,0,0,0,.551.061,3.166,3.166,0,0,1,.591.068c.307.077.625.137.9.19a9.477,9.477,0,0,1,1.357.326,16.473,16.473,0,0,1,4.094,2.027c.21.147.414.308.61.464l.017.013c.126.1.255.2.385.3a.972.972,0,0,1,.142.141.992.992,0,0,0,.138.138,7.656,7.656,0,0,1,1.444,1.465,1.565,1.565,0,0,0,.172.183,1.562,1.562,0,0,1,.172.183c.069.093.14.185.211.278.226.3.456.6.651.909a24.1,24.1,0,0,1,1.2,2.222l.009.018a4.9,4.9,0,0,1,.278.745v.006h0c.046.148.094.3.152.455a15.061,15.061,0,0,1,.258,8.62,1.692,1.692,0,0,0-.064.278,1.662,1.662,0,0,1-.065.282l-.092.266-.007.02a13.165,13.165,0,0,1-.633,1.609,16.018,16.018,0,0,1-3.02,4.251,16.285,16.285,0,0,1-4.262,3.009,13.776,13.776,0,0,1-2.7.91l-.013,0c-.252.066-.512.135-.772.207a4.538,4.538,0,0,1-.858.118,5.1,5.1,0,0,0-.779.1h-.517a3.569,3.569,0,0,1-.759.063c-.158,0-.322,0-.48-.01h-.027c-.17-.005-.327-.01-.481-.01h-17.365c-.383,0-.775,0-1.154-.006h-.1c-.39,0-.793-.007-1.186-.007a15.28,15.28,0,0,0-5.234.616,12,12,0,0,0-7.433,7.325,2.315,2.315,0,0,0-.089.32,2.507,2.507,0,0,1-.083.305,12.008,12.008,0,0,0,0,6.873,13.561,13.561,0,0,0,1.68,3.425,12.476,12.476,0,0,0,4.719,3.943,11.008,11.008,0,0,0,1.62.6l.4.129a1.776,1.776,0,0,0,.37.07,2.1,2.1,0,0,1,.341.059,10.985,10.985,0,0,0,2.753.264c.4,0,.834-.008,1.179-.014h.044c.361-.006.734-.013,1.087-.013h65.841c.079,0,.162,0,.25-.005h.019c.086,0,.194-.006.295-.006a1.9,1.9,0,0,1,.406.034h.539a4.246,4.246,0,0,1,.948.087h.258a2.821,2.821,0,0,0,.377.056,2.826,2.826,0,0,1,.464.074c.288.081.584.148.869.213l.016,0a8.911,8.911,0,0,1,1.614.473c.142.063.285.124.428.185l.047.02c.476.2.967.413,1.421.657a18.724,18.724,0,0,1,2.155,1.422,4.267,4.267,0,0,1,.455.409,4.406,4.406,0,0,0,.428.388,6.72,6.72,0,0,1,1.271,1.336c.115.153.243.3.367.448.147.172.313.367.452.565a16.172,16.172,0,0,1,1.852,3.575,10.886,10.886,0,0,1,.344,1.162v.005c.054.211.11.43.172.644a2.161,2.161,0,0,1,.069.431,2.476,2.476,0,0,0,.061.408,4.3,4.3,0,0,1,.088.608,4.8,4.8,0,0,0,.084.6l.022.862a6.43,6.43,0,0,1-.022,1.724,1.741,1.741,0,0,0-.022.491,1.623,1.623,0,0,1-.022.479,2.987,2.987,0,0,0-.057.427,2.986,2.986,0,0,1-.071.5c-.061.232-.108.473-.154.705a7.4,7.4,0,0,1-.277,1.1q-.085.232-.167.463l0,.006a14.117,14.117,0,0,1-.822,1.987,15.188,15.188,0,0,1-8.747,7.435,10.823,10.823,0,0,1-1.475.357h-.007c-.314.061-.635.123-.954.2a3.542,3.542,0,0,1-.617.071,3.705,3.705,0,0,0-.546.058A1.46,1.46,0,0,1,1617.154,2503.714Zm23.69-54.544c-.246,0-.5-.008-.745-.015h-.014c-.222-.007-.432-.013-.621-.013h-28.439c-.166,0-.338.006-.52.011h-.012c-.186.006-.378.012-.564.012a3.749,3.749,0,0,1-.8-.068,1.472,1.472,0,0,0-.315-.026h-.127a1.248,1.248,0,0,1-.248-.018h-.3a1.961,1.961,0,0,0-.3-.038,2.092,2.092,0,0,1-.365-.049c-.338-.085-.679-.158-.979-.222a10.956,10.956,0,0,1-2.1-.6,20.812,20.812,0,0,1-2.651-1.335,10.675,10.675,0,0,1-.986-.725l0,0-.015-.012c-.15-.12-.305-.243-.459-.359a10.1,10.1,0,0,1-1.078-.97l-.116-.109-.058-.055-.169-.159c-.19-.25-.4-.491-.6-.723-.251-.291-.511-.592-.738-.915a16.7,16.7,0,0,1-1.982-3.943,9.953,9.953,0,0,1-.37-1.456c-.058-.286-.117-.58-.19-.87a2.162,2.162,0,0,1-.046-.483,2.393,2.393,0,0,0-.04-.465,7.2,7.2,0,0,1-.043-2.2,1.578,1.578,0,0,0,.025-.331,1.321,1.321,0,0,1,.018-.271l.022-.313.022-.313c.06-.246.1-.5.134-.75a5.788,5.788,0,0,1,.211-1.016c.068-.2.129-.407.189-.607l0-.011c.085-.287.173-.583.281-.868a15.152,15.152,0,0,1,1.724-3.275,15.369,15.369,0,0,1,7.412-5.6,11.482,11.482,0,0,1,1.419-.393l.025-.006c.218-.051.444-.1.666-.161a3.167,3.167,0,0,1,.444-.071,3.235,3.235,0,0,0,.375-.057,3.811,3.811,0,0,1,.623-.07h.016c.088-.005.171-.01.244-.017l.051,0c.047,0,.1,0,.149.007s.109.008.16.008a.351.351,0,0,0,.177-.033h30.55a18.758,18.758,0,0,1,4.632.365,2.365,2.365,0,0,0,.3.055,1.812,1.812,0,0,1,.351.074l.066.022a20.423,20.423,0,0,1,3.166,1.27,15.334,15.334,0,0,1,4.934,4.308c.206.287.379.575.563.879.07.116.14.232.213.351a17.14,17.14,0,0,1,1.465,3.232,8.124,8.124,0,0,1,.306,1.251c.05.262.1.533.167.8a2.135,2.135,0,0,1,.047.483,2.38,2.38,0,0,0,.04.465,7.284,7.284,0,0,1,.043,2.219v.432a4.312,4.312,0,0,0-.079.646,3.964,3.964,0,0,1-.093.71c-.058.224-.114.446-.168.665a14.724,14.724,0,0,1-1,3.042,15.451,15.451,0,0,1-7.39,7.325,14.277,14.277,0,0,1-2.726.911l-.463.122a4.923,4.923,0,0,1-.729.119,5.511,5.511,0,0,0-.65.1,1.264,1.264,0,0,1-.284.028c-.065,0-.131,0-.2-.006h-.006c-.078,0-.144-.008-.212-.008a1.311,1.311,0,0,0-.293.029A4.675,4.675,0,0,1,1640.844,2449.17Zm40.3-64.979c-.609,0-1.253-.008-1.771-.015-.619-.008-1.175-.015-1.713-.015H1553.37a18.536,18.536,0,0,1-5.085-.432,4.108,4.108,0,0,0-.4-.093,3.1,3.1,0,0,1-.482-.121c-.153-.056-.306-.11-.459-.165l-.008,0a14.209,14.209,0,0,1-1.623-.652,15.5,15.5,0,0,1-5.8-4.912,20.513,20.513,0,0,1-1.544-2.765l-.007-.015a5.922,5.922,0,0,1-.352-.977c-.049-.165-.1-.349-.165-.531a11.869,11.869,0,0,1-.344-1.36c-.054-.254-.11-.516-.173-.774a2.224,2.224,0,0,1-.048-.375,2.123,2.123,0,0,0-.037-.313v-.322a6.467,6.467,0,0,1-.043-1.812v-.494a4.7,4.7,0,0,1,.085-.689v-.238c.085-.353.148-.7.209-1.043a9.917,9.917,0,0,1,.395-1.651,14.959,14.959,0,0,1,2.563-4.761c.093-.125.2-.244.3-.36l0,0c.1-.111.2-.226.3-.347l.28-.258a7.156,7.156,0,0,1,1.444-1.336c.135-.1.271-.211.4-.319l0,0h0c.161-.133.328-.27.5-.39a16.081,16.081,0,0,1,3.6-1.831,12.045,12.045,0,0,1,1.879-.482l.021,0c.308-.062.626-.126.944-.2a2.341,2.341,0,0,1,.391-.047,2.192,2.192,0,0,0,.342-.039.5.5,0,0,1,.112-.011c.031,0,.062,0,.093,0s.061,0,.088,0a.267.267,0,0,0,.159-.039,2.891,2.891,0,0,0,.38.02c.142,0,.3-.005.444-.01h.006c.149,0,.29-.01.42-.01h129.7a14.594,14.594,0,0,1,3.709.3,4.459,4.459,0,0,0,.462.089h.005a3.187,3.187,0,0,1,.567.125l.184.063a18.475,18.475,0,0,1,2.854,1.144,15.333,15.333,0,0,1,5.86,5.58,16.588,16.588,0,0,1,1.465,3.146,6.07,6.07,0,0,1,.228.9c.046.226.092.457.16.7a5.594,5.594,0,0,1,.121.621c.027.176.056.356.094.521v.237a2.865,2.865,0,0,1,.065.561,1.056,1.056,0,0,0,.009.192c.006.057.012.121.012.173,0,.155.006.339.011.517a5.939,5.939,0,0,1-.054,1.4v.344a5.21,5.21,0,0,0-.095.671,4.484,4.484,0,0,1-.12.773c-.072.258-.138.517-.2.767a13.763,13.763,0,0,1-.445,1.516,15.51,15.51,0,0,1-6.637,7.842,12.464,12.464,0,0,1-1.82.872l-.054.022c-.177.074-.36.15-.539.227a3.289,3.289,0,0,1-.6.179c-.148.034-.3.07-.459.123A18.622,18.622,0,0,1,1681.148,2384.191Z" transform="translate(-1373.785 -2353.998)" fill="rgba(255,255,255,0.1)"/>
</svg>
